<svg xmlns="http://www.w3.org/2000/svg" viewBox="0 0 400 200">
  <defs>
    <linearGradient id="bg" x1="0" y1="0" x2="1" y2="1"><stop offset="0%" stop-color="#1a1033"/><stop offset="100%" stop-color="#0d0d1a"/></linearGradient>
    <linearGradient id="acc" x1="0" y1="0" x2="1" y2="1"><stop offset="0%" stop-color="#f59e0b"/><stop offset="100%" stop-color="#ea580c"/></linearGradient>
  </defs>
  <rect width="400" height="200" fill="url(#bg)"/>
  <!-- Decorative circles -->
  <circle cx="340" cy="40" r="60" fill="#f59e0b" opacity="0.08"/>
  <circle cx="60" cy="160" r="40" fill="#ea580c" opacity="0.06"/>
  <!-- App mockup card -->
  <rect x="30" y="30" width="160" height="140" rx="12" fill="#1e1e2e" stroke="#f59e0b" stroke-width="1" opacity="0.9"/>
  <rect x="40" y="42" width="80" height="8" rx="4" fill="#f59e0b" opacity="0.8"/>
  <rect x="40" y="58" width="60" height="5" rx="2.5" fill="#9ca3af" opacity="0.4"/>
  <!-- Content lines -->
  <rect x="40" y="75" width="140" height="6" rx="3" fill="#ffffff" opacity="0.08"/>
  <rect x="40" y="87" width="120" height="6" rx="3" fill="#ffffff" opacity="0.06"/>
  <rect x="40" y="99" width="130" height="6" rx="3" fill="#ffffff" opacity="0.05"/>
  <!-- Calendar mockup -->
  <g transform="translate(40, 115)">
    <rect width="18" height="18" rx="3" fill="#f59e0b" opacity="0.2"/><text x="9" y="13" font-size="8" fill="#f59e0b" text-anchor="middle" font-family="sans-serif">M</text>
    <rect x="22" width="18" height="18" rx="3" fill="#f59e0b" opacity="0.3"/><text x="31" y="13" font-size="8" fill="#f59e0b" text-anchor="middle" font-family="sans-serif">T</text>
    <rect x="44" width="18" height="18" rx="3" fill="#f59e0b" opacity="0.2"/><text x="53" y="13" font-size="8" fill="#f59e0b" text-anchor="middle" font-family="sans-serif">W</text>
    <rect x="66" width="18" height="18" rx="3" fill="#f59e0b" opacity="0.4"/><text x="75" y="13" font-size="8" fill="#fff" text-anchor="middle" font-family="sans-serif">T</text>
    <rect x="88" width="18" height="18" rx="3" fill="#f59e0b" opacity="0.2"/><text x="97" y="13" font-size="8" fill="#f59e0b" text-anchor="middle" font-family="sans-serif">F</text>
  </g>
  <!-- Right side text -->
  <text x="220" y="70" font-size="22" font-weight="bold" fill="#f3f4f6" font-family="sans-serif">SocialAI</text>
  <text x="220" y="90" font-size="22" font-weight="bold" fill="#f59e0b" font-family="sans-serif">Studio</text>
  <text x="220" y="112" font-size="10" fill="#9ca3af" font-family="sans-serif">AI-powered content</text>
  <text x="220" y="126" font-size="10" fill="#9ca3af" font-family="sans-serif">generation &amp; scheduling</text>
  <!-- Sparkle icons -->
  <path d="M360 90l3 8 8 3-8 3-3 8-3-8-8-3 8-3z" fill="#f59e0b" opacity="0.6"/>
  <path d="M340 130l2 5 5 2-5 2-2 5-2-5-5-2 5-2z" fill="#ea580c" opacity="0.4"/>
  <!-- Bottom tag -->
  <rect x="220" y="145" width="120" height="24" rx="12" fill="#f59e0b" opacity="0.15" stroke="#f59e0b" stroke-width="0.5"/>
  <text x="280" y="161" font-size="9" fill="#f59e0b" text-anchor="middle" font-weight="bold" font-family="sans-serif">From $49/mo</text>
</svg>
